<svg width="32" height="37" viewBox="0 0 32 37" fill="none" xmlns="http://www.w3.org/2000/svg">
<g clip-path="url(#clip0_2046_6705)">
<path d="M2.73433 26.3778L3.2375 25.5057C4.46895 23.3782 5.82619 21.8541 7.19888 20.7617C6.86785 19.557 6.6913 18.3171 6.6913 17.0397C6.6913 15.6544 6.89654 14.2955 7.30702 12.9565C7.7175 11.6196 8.3244 10.4238 9.12771 9.36882C9.93102 8.31388 10.9087 7.46376 12.0607 6.81846C13.2105 6.17316 14.5434 5.85161 16.0574 5.85161C17.5073 5.85161 18.8094 6.15774 19.9592 6.77221C21.109 7.38667 22.0888 8.21257 22.8921 9.25209C23.6954 10.2894 24.3178 11.4875 24.7614 12.8398C25.2027 14.192 25.4234 15.5949 25.4234 17.0419C25.4234 18.3017 25.2447 19.5394 24.907 20.7573C26.2819 21.8519 27.6436 23.376 28.8772 25.5079L29.3738 26.369C29.9211 25.4814 30.3956 24.5366 30.7928 23.5323C31.5961 21.5017 32 19.3698 32 17.1344C32 15.0267 31.6204 12.9499 30.8656 10.9039C30.1087 8.85786 29.0361 7.03429 27.648 5.42876C26.2598 3.82322 24.5892 2.52602 22.6339 1.53495C20.6786 0.543876 18.5181 0.0483398 16.1523 0.0483398C13.8505 0.0483398 11.7208 0.513043 9.7655 1.44024C7.81019 2.36745 6.1153 3.6206 4.68082 5.1931C3.24413 6.7678 2.12523 8.57596 1.32192 10.622C0.516402 12.668 0.114746 14.8087 0.114746 17.0419C0.114746 19.1826 0.492125 21.2749 1.24909 23.3209C1.65075 24.4045 2.1495 25.422 2.73433 26.3778Z" fill="white"/>
<path d="M16.0553 29.9634C14.5678 31.7011 12.767 32.9784 10.8845 33.9122C12.2969 35.1962 14.5038 36.9581 16.0067 36.9581C17.5008 36.9581 19.7386 35.1456 21.1311 33.8682C19.2862 32.9388 17.5185 31.6724 16.0553 29.9634Z" fill="white"/>
<path d="M16.0551 21.7792C19.094 21.7792 22.5875 22.2131 25.5889 27.3997C25.761 27.6992 25.9288 27.9878 26.0899 28.2675C26.9219 29.7144 27.6501 30.9808 28.5307 32.2163C26.9859 32.0071 25.4168 31.5975 24.0132 31.0226C21.2965 29.9126 19.2551 28.2675 17.942 26.1311L17.2932 25.0762L16.0551 23.0632L14.817 25.0762L14.1682 26.1334C12.8551 28.2697 10.8115 29.9148 8.09703 31.0248C6.69345 31.5975 5.12655 32.0071 3.57952 32.2185C4.46007 30.983 5.18834 29.7166 6.02034 28.2697C6.18145 27.99 6.34697 27.6992 6.52131 27.4019C9.52269 22.2131 13.0162 21.7792 16.0551 21.7792ZM16.0551 20.3301C13.1464 20.3301 8.78338 20.5922 5.26338 26.6751C3.59717 29.5536 2.5489 31.5556 0.379517 33.7976C0.66862 33.8175 0.981998 33.8285 1.30862 33.8285C5.36931 33.8285 12.1136 32.2472 15.4063 26.8954L16.0551 25.8404L16.7039 26.8954C19.9944 32.2494 26.7387 33.8285 30.8016 33.8285C31.1304 33.8285 31.4416 33.8175 31.7307 33.7976C29.5613 31.5556 28.513 29.5536 26.8468 26.6751C23.3268 20.5922 18.9638 20.3301 16.0551 20.3301Z" fill="white"/>
</g>
<defs>
<clipPath id="clip0_2046_6705">
<rect width="32" height="37" fill="white"/>
</clipPath>
</defs>
</svg>
