<svg width="33" height="38" viewBox="0 0 33 38" fill="none" xmlns="http://www.w3.org/2000/svg">
<g clip-path="url(#clip0_3581_7295)">
<path d="M3.23384 26.8778L3.73702 26.0057C4.96846 23.8782 6.3257 22.3541 7.69839 21.2617C7.36736 20.057 7.19081 18.8171 7.19081 17.5397C7.19081 16.1544 7.39605 14.7955 7.80653 13.4565C8.21702 12.1196 8.82391 10.9238 9.62722 9.86882C10.4305 8.81388 11.4082 7.96376 12.5602 7.31846C13.71 6.67316 15.0429 6.35161 16.5569 6.35161C18.0068 6.35161 19.3089 6.65774 20.4587 7.27221C21.6085 7.88667 22.5883 8.71257 23.3916 9.75209C24.195 10.7894 24.8173 11.9875 25.2609 13.3398C25.7023 14.692 25.923 16.0949 25.923 17.5419C25.923 18.8017 25.7442 20.0394 25.4065 21.2573C26.7814 22.3519 28.1431 23.876 29.3767 26.0079L29.8733 26.869C30.4206 25.9814 30.8951 25.0366 31.2923 24.0323C32.0956 22.0017 32.4995 19.8698 32.4995 17.6344C32.4995 15.5267 32.1199 13.4499 31.3652 11.4039C30.6082 9.35786 29.5356 7.53429 28.1475 5.92876C26.7594 4.32322 25.0887 3.02602 23.1334 2.03495C21.1781 1.04388 19.0176 0.54834 16.6518 0.54834C14.35 0.54834 12.2203 1.01304 10.265 1.94024C8.30971 2.86745 6.61481 4.1206 5.18033 5.6931C3.74364 7.2678 2.62474 9.07596 1.82143 11.122C1.01591 13.168 0.614258 15.3087 0.614258 17.5419C0.614258 19.6826 0.991637 21.7749 1.7486 23.8209C2.15026 24.9045 2.64902 25.922 3.23384 26.8778Z" fill="#502B71"/>
<path d="M16.5545 30.4634C15.0671 32.2011 13.2663 33.4784 11.3838 34.4122C12.7962 35.6962 15.0031 37.4581 16.506 37.4581C18.0001 37.4581 20.2379 35.6456 21.6304 34.3682C19.7854 33.4388 18.0177 32.1724 16.5545 30.4634Z" fill="#502B71"/>
<path d="M16.5545 22.2792C19.5934 22.2792 23.0869 22.7131 26.0883 27.8997C26.2604 28.1992 26.4282 28.4878 26.5893 28.7675C27.4213 30.2144 28.1495 31.4808 29.0301 32.7163C27.4853 32.5071 25.9162 32.0975 24.5126 31.5226C21.7959 30.4126 19.7545 28.7675 18.4414 26.6311L17.7926 25.5762L16.5545 23.5632L15.3164 25.5762L14.6676 26.6334C13.3545 28.7697 11.3109 30.4148 8.59642 31.5248C7.19284 32.0975 5.62594 32.5071 4.07891 32.7185C4.95946 31.483 5.68773 30.2166 6.51973 28.7697C6.68084 28.49 6.84636 28.1992 7.0207 27.9019C10.0221 22.7131 13.5156 22.2792 16.5545 22.2792ZM16.5545 20.8301C13.6458 20.8301 9.28277 21.0922 5.76277 27.1751C4.09656 30.0536 3.04829 32.0556 0.878906 34.2976C1.16801 34.3175 1.48139 34.3285 1.80801 34.3285C5.8687 34.3285 12.613 32.7472 15.9057 27.3954L16.5545 26.3404L17.2033 27.3954C20.4938 32.7494 27.2381 34.3285 31.301 34.3285C31.6298 34.3285 31.941 34.3175 32.2301 34.2976C30.0607 32.0556 29.0124 30.0536 27.3462 27.1751C23.8262 21.0922 19.4632 20.8301 16.5545 20.8301Z" fill="#502B71"/>
</g>
<defs>
<clipPath id="clip0_3581_7295">
<rect width="32" height="37" fill="white" transform="translate(0.5 0.5)"/>
</clipPath>
</defs>
</svg>
