<svg width="152" height="42" viewBox="0 0 152 42" fill="none" xmlns="http://www.w3.org/2000/svg">
<path fill-rule="evenodd" clip-rule="evenodd" d="M1.99719 1.64178H31.2425V37.5526H1.99719V1.64178Z" fill="black" fill-opacity="0.01"/>
<path fill-rule="evenodd" clip-rule="evenodd" d="M8.96703 19.3947H17.7047C18.3442 19.3947 18.9422 19.2432 19.4977 18.9392C20.0533 18.6362 20.5335 18.2234 20.9375 17.7004C21.3413 17.1776 21.6612 16.5621 21.897 15.854C22.132 15.1462 22.2507 14.3872 22.2507 13.5776C22.2507 12.7355 22.1154 11.9597 21.8466 11.2518C21.5767 10.543 21.2152 9.92828 20.7604 9.40479C20.3054 8.88316 19.7834 8.47811 19.1951 8.19075C18.6056 7.90531 18.0081 7.76156 17.4019 7.76156H8.96703V19.3947ZM1.99609 37.5524V1.6416H17.856C19.5058 1.6416 21.0298 1.9873 22.4275 2.67803C23.8244 3.36973 25.0285 4.27999 26.0388 5.40931C27.0494 6.53957 27.8398 7.82064 28.413 9.25327C28.985 10.6875 29.2712 12.1285 29.2712 13.5776C29.2712 15.9044 28.6903 18.021 27.5284 19.926C26.3673 21.8312 24.7928 23.2051 22.8068 24.0483L31.2417 37.5524H23.3621L15.8359 25.5147H8.96703V37.5524H1.99609Z" fill="#502B71"/>
<path fill-rule="evenodd" clip-rule="evenodd" d="M95.2363 11.0491C95.0001 10.8138 94.5704 10.4925 93.948 10.0884C93.3243 9.68358 92.5669 9.28723 91.6754 8.89953C90.7827 8.5123 89.8146 8.18392 88.7711 7.91326C87.7267 7.644 86.6657 7.50844 85.5891 7.50844C83.6694 7.50844 82.2376 7.86259 81.296 8.57068C80.3525 9.27853 79.8813 10.2739 79.8813 11.555C79.8813 12.2969 80.0585 12.9123 80.4114 13.4009C80.7655 13.8902 81.2782 14.3205 81.9526 14.6906C82.6254 15.0624 83.4755 15.3985 84.5028 15.7027C85.5294 16.0055 86.7164 16.3268 88.0641 16.6632C89.8146 17.1358 91.4051 17.6417 92.8369 18.1807C94.2679 18.7206 95.4802 19.3947 96.4737 20.2036C97.4662 21.0137 98.2332 21.9831 98.7716 23.1124C99.3099 24.2425 99.5801 25.6331 99.5801 27.2852C99.5801 29.2068 99.2179 30.851 98.4939 32.2165C97.7694 33.582 96.8018 34.6872 95.5895 35.5299C94.3772 36.3726 92.9633 36.9881 91.3469 37.376C89.7309 37.7628 88.0467 37.9579 86.2961 37.9579C83.6016 37.9579 80.9424 37.5529 78.3157 36.7439C75.689 35.934 73.3315 34.7885 71.2444 33.3043L74.3251 27.2852C74.6288 27.589 75.1752 27.9853 75.9667 28.4739C76.7578 28.9629 77.6917 29.4522 78.7698 29.9403C79.8472 30.4298 81.0427 30.8428 82.3559 31.1791C83.6694 31.5173 85.0159 31.6852 86.3969 31.6852C90.2355 31.6852 92.1555 30.4548 92.1555 27.9931C92.1555 27.1839 91.9356 26.51 91.4982 25.9699C91.0607 25.4311 90.4379 24.9585 89.6293 24.5544C88.8215 24.1493 87.8442 23.7783 86.6998 23.4413C85.5554 23.1042 84.2752 22.7505 82.8612 22.3788C81.1439 21.9069 79.654 21.3923 78.3913 20.8362C77.129 20.2798 76.0761 19.6308 75.2349 18.8888C74.3926 18.1478 73.7609 17.2702 73.3401 16.2593C72.9193 15.2472 72.7087 14.0506 72.7087 12.6677C72.7087 10.8467 73.0453 9.2281 73.7194 7.81217C74.3926 6.39623 75.3272 5.21598 76.5228 4.27171C77.7177 3.32838 79.1064 2.61066 80.6899 2.12164C82.2717 1.63355 83.9727 1.38848 85.7911 1.38848C88.3161 1.38848 90.6395 1.7853 92.7616 2.57712C94.8826 3.37038 96.734 4.30548 98.3174 5.38461L95.2363 11.0491Z" fill="#502B71"/>
<path fill-rule="evenodd" clip-rule="evenodd" d="M135.543 1.64178V37.5529H128.623V22.2277H112.359V37.5529H105.388V1.64178H112.359V16.1577H128.623V1.64178H135.543Z" fill="#502B71"/>
<path fill-rule="evenodd" clip-rule="evenodd" d="M143.523 37.5529H150.493V1.69221H143.523V37.5529Z" fill="#502B71"/>
<path fill-rule="evenodd" clip-rule="evenodd" d="M36.8668 29.6018L37.4031 28.6678C38.7174 26.3892 40.1679 24.7564 41.633 23.585C41.2785 22.2948 41.0904 20.9668 41.0904 19.5971C41.0904 18.1136 41.3095 16.6561 41.747 15.2219C42.1845 13.7893 42.8332 12.5082 43.6922 11.3779C44.5505 10.2486 45.5941 9.3381 46.8238 8.64668C48.0524 7.95593 49.4753 7.61022 51.0917 7.61022C52.6399 7.61022 54.0293 7.93836 55.2587 8.59577C56.4877 9.25344 57.5317 10.1388 58.3903 11.2518C59.2485 12.364 59.9132 13.6464 60.3852 15.0957C60.8563 16.5454 61.0921 18.0467 61.0921 19.5971C61.0921 20.9457 60.9018 22.2716 60.5403 23.578C62.0086 24.75 63.462 26.3843 64.7791 28.6678L65.3096 29.5917C65.8948 28.6395 66.4005 27.6269 66.8252 26.5516C67.6838 24.3769 68.1131 22.0929 68.1131 19.6979C68.1131 17.4397 67.7086 15.2141 66.9008 13.0216C66.093 10.8305 64.9478 8.8744 63.4659 7.15474C61.9845 5.43504 60.1998 4.04398 58.1126 2.98195C56.0238 1.91946 53.7179 1.38846 51.1921 1.38846C48.7341 1.38846 46.4612 1.88641 44.3736 2.88086C42.2856 3.87509 40.4757 5.21646 38.9439 6.90144C37.4113 8.58802 36.2164 10.5263 35.3578 12.7181C34.4992 14.9109 34.0699 17.2029 34.0699 19.5971C34.0699 21.8907 34.4736 24.1327 35.2822 26.3241C35.7111 27.4871 36.2436 28.5761 36.8668 29.6018Z" fill="#502B71"/>
<path fill-rule="evenodd" clip-rule="evenodd" d="M51.0908 33.4427C49.5035 35.3038 47.5788 36.6726 45.5711 37.6741C47.0777 39.0509 49.4349 40.9387 51.0408 40.9387C52.6351 40.9387 55.0252 38.9953 56.5112 37.6279C54.5388 36.6311 52.6517 35.2733 51.0908 33.4427Z" fill="#502B71"/>
<path fill-rule="evenodd" clip-rule="evenodd" d="M51.0895 23.1211C47.9847 23.1211 43.3255 23.403 39.5661 29.9201C37.7868 33.0034 36.6679 35.1483 34.3516 37.5496C34.6614 37.5709 34.9941 37.5817 35.3447 37.5817C39.6813 37.5817 46.8821 35.888 50.3961 30.1525L51.0895 29.0218L51.7829 30.1525C55.2965 35.8878 62.4977 37.5817 66.8342 37.5817C67.1852 37.5817 67.5171 37.5709 67.8273 37.5496C65.511 35.1483 64.3921 33.0034 62.6129 29.9201C58.8534 23.403 54.1943 23.1211 51.0895 23.1211ZM51.0895 24.6745C54.3339 24.6745 58.0639 25.1398 61.2694 30.6971C61.4545 31.0166 61.6317 31.3266 61.8039 31.6276C62.692 33.1779 63.4699 34.5359 64.4108 35.8583C62.7606 35.634 61.0853 35.1945 59.5875 34.5805C56.6883 33.3913 54.5068 31.6283 53.1049 29.34L52.4115 28.2088L51.0895 26.0531L49.7678 28.2088L49.0736 29.3405C47.6717 31.6287 45.4906 33.3913 42.5913 34.5805C41.0933 35.1945 39.4183 35.634 37.7682 35.8583C38.7094 34.5359 39.4873 33.1774 40.375 31.6271C40.5472 31.3262 40.7245 31.0166 40.9094 30.6971C44.1151 25.1398 47.8451 24.6745 51.0895 24.6745Z" fill="#502B71"/>
</svg>
