<svg width="13" height="13" viewBox="0 0 13 13" fill="none" xmlns="http://www.w3.org/2000/svg">
<path d="M12 2H1C0.867392 2 0.740215 2.05268 0.646447 2.14645C0.552679 2.24021 0.5 2.36739 0.5 2.5C0.5 2.63261 0.552679 2.75979 0.646447 2.85355C0.740215 2.94732 0.867392 3 1 3H1.5V12C1.5 12.2652 1.60536 12.5196 1.79289 12.7071C1.98043 12.8946 2.23478 13 2.5 13H10.5C10.7652 13 11.0196 12.8946 11.2071 12.7071C11.3946 12.5196 11.5 12.2652 11.5 12V3H12C12.1326 3 12.2598 2.94732 12.3536 2.85355C12.4473 2.75979 12.5 2.63261 12.5 2.5C12.5 2.36739 12.4473 2.24021 12.3536 2.14645C12.2598 2.05268 12.1326 2 12 2ZM10.5 12H2.5V3H10.5V12ZM3.5 0.5C3.5 0.367392 3.55268 0.240215 3.64645 0.146447C3.74021 0.0526784 3.86739 0 4 0H9C9.13261 0 9.25979 0.0526784 9.35355 0.146447C9.44732 0.240215 9.5 0.367392 9.5 0.5C9.5 0.632608 9.44732 0.759785 9.35355 0.853553C9.25979 0.947322 9.13261 1 9 1H4C3.86739 1 3.74021 0.947322 3.64645 0.853553C3.55268 0.759785 3.5 0.632608 3.5 0.5Z" fill="#52575C"/>
</svg>
