<svg width="16" height="16" viewBox="0 0 16 16" fill="none" xmlns="http://www.w3.org/2000/svg">
<path d="M14 9.50039V13.0004C14 13.2656 13.8946 13.52 13.7071 13.7075C13.5196 13.895 13.2652 14.0004 13 14.0004H3C2.73478 14.0004 2.48043 13.895 2.29289 13.7075C2.10536 13.52 2 13.2656 2 13.0004V9.50039C2 9.36778 2.05268 9.24061 2.14645 9.14684C2.24021 9.05307 2.36739 9.00039 2.5 9.00039C2.63261 9.00039 2.75979 9.05307 2.85355 9.14684C2.94732 9.24061 3 9.36778 3 9.50039V13.0004H13V9.50039C13 9.36778 13.0527 9.24061 13.1464 9.14684C13.2402 9.05307 13.3674 9.00039 13.5 9.00039C13.6326 9.00039 13.7598 9.05307 13.8536 9.14684C13.9473 9.24061 14 9.36778 14 9.50039ZM5.5 5.50039H7.5V9.50039C7.5 9.633 7.55268 9.76018 7.64645 9.85395C7.74021 9.94772 7.86739 10.0004 8 10.0004C8.13261 10.0004 8.25979 9.94772 8.35355 9.85395C8.44732 9.76018 8.5 9.633 8.5 9.50039V5.50039H10.5C10.5989 5.50047 10.6957 5.47119 10.778 5.41625C10.8603 5.36132 10.9244 5.2832 10.9623 5.19179C11.0002 5.10038 11.0101 4.99978 10.9908 4.90274C10.9714 4.8057 10.9238 4.71657 10.8538 4.64664L8.35375 2.14664C8.30731 2.10016 8.25217 2.06328 8.19147 2.03811C8.13077 2.01295 8.06571 2 8 2C7.93429 2 7.86923 2.01295 7.80853 2.03811C7.74783 2.06328 7.69269 2.10016 7.64625 2.14664L5.14625 4.64664C5.07624 4.71657 5.02856 4.8057 5.00924 4.90274C4.98991 4.99978 4.99981 5.10038 5.03769 5.19179C5.07556 5.2832 5.13971 5.36132 5.22201 5.41625C5.30431 5.47119 5.40105 5.50047 5.5 5.50039Z" fill="#52575C"/>
</svg>
