<svg width="20" height="21" viewBox="0 0 20 21" fill="none" xmlns="http://www.w3.org/2000/svg">
<path d="M17.5 8.625C17.5 8.79076 17.4342 8.94973 17.3169 9.06694C17.1997 9.18415 17.0408 9.25 16.875 9.25C16.7092 9.25 16.5503 9.18415 16.4331 9.06694C16.3158 8.94973 16.25 8.79076 16.25 8.625V5.13438L11.068 10.3172C10.9507 10.4345 10.7916 10.5003 10.6258 10.5003C10.4599 10.5003 10.3009 10.4345 10.1836 10.3172C10.0663 10.1999 10.0004 10.0409 10.0004 9.875C10.0004 9.70915 10.0663 9.55009 10.1836 9.43281L15.3656 4.25H11.875C11.7092 4.25 11.5503 4.18415 11.4331 4.06694C11.3158 3.94973 11.25 3.79076 11.25 3.625C11.25 3.45924 11.3158 3.30027 11.4331 3.18306C11.5503 3.06585 11.7092 3 11.875 3H16.875C17.0408 3 17.1997 3.06585 17.3169 3.18306C17.4342 3.30027 17.5 3.45924 17.5 3.625V8.625ZM14.375 10.5C14.2092 10.5 14.0503 10.5658 13.9331 10.6831C13.8158 10.8003 13.75 10.9592 13.75 11.125V16.75H3.75V6.75H9.375C9.54076 6.75 9.69973 6.68415 9.81694 6.56694C9.93415 6.44973 10 6.29076 10 6.125C10 5.95924 9.93415 5.80027 9.81694 5.68306C9.69973 5.56585 9.54076 5.5 9.375 5.5H3.75C3.41848 5.5 3.10054 5.6317 2.86612 5.86612C2.6317 6.10054 2.5 6.41848 2.5 6.75V16.75C2.5 17.0815 2.6317 17.3995 2.86612 17.6339C3.10054 17.8683 3.41848 18 3.75 18H13.75C14.0815 18 14.3995 17.8683 14.6339 17.6339C14.8683 17.3995 15 17.0815 15 16.75V11.125C15 10.9592 14.9342 10.8003 14.8169 10.6831C14.6997 10.5658 14.5408 10.5 14.375 10.5Z" fill="#A0A0A0"/>
</svg>
