<svg width="16" height="17" viewBox="0 0 16 17" fill="none" xmlns="http://www.w3.org/2000/svg">
<path d="M13 2.5H11.5V2C11.5 1.86739 11.4473 1.74021 11.3536 1.64645C11.2598 1.55268 11.1326 1.5 11 1.5C10.8674 1.5 10.7402 1.55268 10.6464 1.64645C10.5527 1.74021 10.5 1.86739 10.5 2V2.5H5.5V2C5.5 1.86739 5.44732 1.74021 5.35355 1.64645C5.25979 1.55268 5.13261 1.5 5 1.5C4.86739 1.5 4.74021 1.55268 4.64645 1.64645C4.55268 1.74021 4.5 1.86739 4.5 2V2.5H3C2.73478 2.5 2.48043 2.60536 2.29289 2.79289C2.10536 2.98043 2 3.23478 2 3.5V13.5C2 13.7652 2.10536 14.0196 2.29289 14.2071C2.48043 14.3946 2.73478 14.5 3 14.5H13C13.2652 14.5 13.5196 14.3946 13.7071 14.2071C13.8946 14.0196 14 13.7652 14 13.5V3.5C14 3.23478 13.8946 2.98043 13.7071 2.79289C13.5196 2.60536 13.2652 2.5 13 2.5ZM4.5 3.5V4C4.5 4.13261 4.55268 4.25979 4.64645 4.35355C4.74021 4.44732 4.86739 4.5 5 4.5C5.13261 4.5 5.25979 4.44732 5.35355 4.35355C5.44732 4.25979 5.5 4.13261 5.5 4V3.5H10.5V4C10.5 4.13261 10.5527 4.25979 10.6464 4.35355C10.7402 4.44732 10.8674 4.5 11 4.5C11.1326 4.5 11.2598 4.44732 11.3536 4.35355C11.4473 4.25979 11.5 4.13261 11.5 4V3.5H13V5.5H3V3.5H4.5ZM13 13.5H3V6.5H13V13.5ZM9.85375 8.85375L8.70687 10L9.85375 11.1462C9.90021 11.1927 9.93706 11.2479 9.9622 11.3086C9.98734 11.3692 10.0003 11.4343 10.0003 11.5C10.0003 11.5657 9.98734 11.6308 9.9622 11.6914C9.93706 11.7521 9.90021 11.8073 9.85375 11.8538C9.8073 11.9002 9.75214 11.9371 9.69145 11.9622C9.63075 11.9873 9.5657 12.0003 9.5 12.0003C9.4343 12.0003 9.36925 11.9873 9.30855 11.9622C9.24786 11.9371 9.1927 11.9002 9.14625 11.8538L8 10.7069L6.85375 11.8538C6.8073 11.9002 6.75214 11.9371 6.69145 11.9622C6.63075 11.9873 6.5657 12.0003 6.5 12.0003C6.4343 12.0003 6.36925 11.9873 6.30855 11.9622C6.24786 11.9371 6.1927 11.9002 6.14625 11.8538C6.09979 11.8073 6.06294 11.7521 6.0378 11.6914C6.01266 11.6308 5.99972 11.5657 5.99972 11.5C5.99972 11.4343 6.01266 11.3692 6.0378 11.3086C6.06294 11.2479 6.09979 11.1927 6.14625 11.1462L7.29313 10L6.14625 8.85375C6.05243 8.75993 5.99972 8.63268 5.99972 8.5C5.99972 8.36732 6.05243 8.24007 6.14625 8.14625C6.24007 8.05243 6.36732 7.99972 6.5 7.99972C6.63268 7.99972 6.75993 8.05243 6.85375 8.14625L8 9.29313L9.14625 8.14625C9.1927 8.09979 9.24786 8.06294 9.30855 8.0378C9.36925 8.01266 9.4343 7.99972 9.5 7.99972C9.5657 7.99972 9.63075 8.01266 9.69145 8.0378C9.75214 8.06294 9.8073 8.09979 9.85375 8.14625C9.90021 8.1927 9.93706 8.24786 9.9622 8.30855C9.98734 8.36925 10.0003 8.4343 10.0003 8.5C10.0003 8.5657 9.98734 8.63075 9.9622 8.69145C9.93706 8.75214 9.90021 8.8073 9.85375 8.85375Z" fill="#52575C"/>
</svg>
