<svg width="16" height="16" viewBox="0 0 16 16" fill="none" xmlns="http://www.w3.org/2000/svg">
<path d="M14 7.5V8.5C14 8.63261 13.9473 8.75979 13.8536 8.85355C13.7598 8.94732 13.6326 9 13.5 9H2.5C2.36739 9 2.24021 8.94732 2.14645 8.85355C2.05268 8.75979 2 8.63261 2 8.5V7.5C2 7.36739 2.05268 7.24021 2.14645 7.14645C2.24021 7.05268 2.36739 7 2.5 7H13.5C13.6326 7 13.7598 7.05268 13.8536 7.14645C13.9473 7.24021 14 7.36739 14 7.5ZM13.5 11H2.5C2.36739 11 2.24021 11.0527 2.14645 11.1464C2.05268 11.2402 2 11.3674 2 11.5V12.5C2 12.6326 2.05268 12.7598 2.14645 12.8536C2.24021 12.9473 2.36739 13 2.5 13H13.5C13.6326 13 13.7598 12.9473 13.8536 12.8536C13.9473 12.7598 14 12.6326 14 12.5V11.5C14 11.3674 13.9473 11.2402 13.8536 11.1464C13.7598 11.0527 13.6326 11 13.5 11ZM13.5 3H2.5C2.36739 3 2.24021 3.05268 2.14645 3.14645C2.05268 3.24021 2 3.36739 2 3.5V4.5C2 4.63261 2.05268 4.75979 2.14645 4.85355C2.24021 4.94732 2.36739 5 2.5 5H13.5C13.6326 5 13.7598 4.94732 13.8536 4.85355C13.9473 4.75979 14 4.63261 14 4.5V3.5C14 3.36739 13.9473 3.24021 13.8536 3.14645C13.7598 3.05268 13.6326 3 13.5 3Z" fill="#4F2B72"/>
</svg>
