<svg width="20" height="20" viewBox="0 0 20 20" fill="none" xmlns="http://www.w3.org/2000/svg">
<path d="M16.2501 7.50017C16.2501 7.31475 16.305 7.13349 16.4081 6.97932C16.5111 6.82515 16.6575 6.70499 16.8288 6.63403C17.0001 6.56308 17.1886 6.54451 17.3705 6.58068C17.5523 6.61686 17.7194 6.70615 17.8505 6.83726C17.9816 6.96837 18.0709 7.13542 18.107 7.31727C18.1432 7.49913 18.1246 7.68763 18.0537 7.85894C17.9827 8.03024 17.8626 8.17666 17.7084 8.27967C17.5542 8.38269 17.373 8.43767 17.1876 8.43767C16.9389 8.43767 16.7005 8.3389 16.5246 8.16308C16.3488 7.98727 16.2501 7.74881 16.2501 7.50017ZM15.3126 5.62517C15.498 5.62517 15.6792 5.57019 15.8334 5.46717C15.9876 5.36416 16.1077 5.21774 16.1787 5.04644C16.2496 4.87513 16.2682 4.68663 16.232 4.50477C16.1959 4.32292 16.1066 4.15587 15.9755 4.02476C15.8444 3.89365 15.6773 3.80436 15.4955 3.76818C15.3136 3.73201 15.1251 3.75058 14.9538 3.82153C14.7825 3.89249 14.6361 4.01265 14.5331 4.16682C14.43 4.32099 14.3751 4.50225 14.3751 4.68767C14.3751 4.93631 14.4738 5.17477 14.6496 5.35058C14.8255 5.5264 15.0639 5.62517 15.3126 5.62517ZM17.5516 10.0002C17.3865 9.98655 17.2227 10.0391 17.0963 10.1461C16.9699 10.2532 16.8911 10.4061 16.8774 10.5713C16.7655 11.8779 16.2828 13.1254 15.4861 14.1669C14.6893 15.2085 13.6116 16.0008 12.3798 16.4507C11.148 16.9006 9.81329 16.9893 8.53279 16.7063C7.25229 16.4234 6.07924 15.7806 5.15165 14.8536C4.22407 13.9266 3.58055 12.754 3.29681 11.4736C3.01307 10.1933 3.10091 8.85858 3.55001 7.62649C3.9991 6.3944 4.79076 5.31621 5.83183 4.51877C6.8729 3.72134 8.12008 3.23784 9.42662 3.12517C9.50869 3.1184 9.58863 3.09553 9.66187 3.05786C9.73511 3.0202 9.80021 2.96848 9.85346 2.90565C9.90671 2.84283 9.94706 2.77013 9.97221 2.69171C9.99737 2.61329 10.0068 2.53068 10.0001 2.44861C9.99328 2.36653 9.97041 2.28659 9.93275 2.21336C9.89508 2.14012 9.84336 2.07502 9.78054 2.02177C9.71771 1.96852 9.64502 1.92817 9.5666 1.90301C9.48818 1.87786 9.40557 1.8684 9.32349 1.87517C7.77976 2.00796 6.30607 2.57888 5.07579 3.52076C3.84551 4.46265 2.90983 5.73631 2.37883 7.19191C1.84783 8.64751 1.7436 10.2245 2.07841 11.7373C2.41321 13.2501 3.17312 14.6359 4.26874 15.7315C5.36435 16.8271 6.75008 17.587 8.26291 17.9218C9.77573 18.2566 11.3527 18.1524 12.8083 17.6214C14.2639 17.0904 15.5376 16.1547 16.4795 14.9244C17.4213 13.6942 17.9923 12.2205 18.1251 10.6767C18.1321 10.5946 18.1229 10.5119 18.0978 10.4333C18.0728 10.3548 18.0324 10.282 17.9791 10.2191C17.9258 10.1562 17.8606 10.1045 17.7872 10.0669C17.7139 10.0294 17.6338 10.0067 17.5516 10.0002ZM10.0001 4.37517C11.1126 4.37517 12.2001 4.70507 13.1251 5.32315C14.0502 5.94124 14.7711 6.81974 15.1969 7.84758C15.6226 8.87541 15.734 10.0064 15.517 11.0976C15.2999 12.1887 14.7642 13.191 13.9775 13.9776C13.1909 14.7643 12.1886 15.3 11.0974 15.5171C10.0063 15.7341 8.8753 15.6227 7.84746 15.197C6.81963 14.7712 5.94112 14.0503 5.32304 13.1253C4.70496 12.2002 4.37506 11.1127 4.37506 10.0002C4.37671 8.50883 4.96987 7.07906 6.02441 6.02452C7.07894 4.96999 8.50872 4.37682 10.0001 4.37517ZM9.37506 10.0002C9.37506 10.1659 9.4409 10.3249 9.55811 10.4421C9.67532 10.5593 9.8343 10.6252 10.0001 10.6252H13.7501C13.9158 10.6252 14.0748 10.5593 14.192 10.4421C14.3092 10.3249 14.3751 10.1659 14.3751 10.0002C14.3751 9.83441 14.3092 9.67544 14.192 9.55823C14.0748 9.44102 13.9158 9.37517 13.7501 9.37517H10.6251V6.25017C10.6251 6.08441 10.5592 5.92544 10.442 5.80823C10.3248 5.69102 10.1658 5.62517 10.0001 5.62517C9.8343 5.62517 9.67532 5.69102 9.55811 5.80823C9.4409 5.92544 9.37506 6.08441 9.37506 6.25017V10.0002ZM12.5001 3.75017C12.6855 3.75017 12.8667 3.69519 13.0209 3.59217C13.1751 3.48916 13.2952 3.34274 13.3662 3.17144C13.4371 3.00013 13.4557 2.81163 13.4195 2.62977C13.3834 2.44792 13.2941 2.28087 13.163 2.14976C13.0319 2.01865 12.8648 1.92936 12.683 1.89318C12.5011 1.85701 12.3126 1.87558 12.1413 1.94653C11.97 2.01749 11.8236 2.13765 11.7206 2.29182C11.6175 2.44599 11.5626 2.62725 11.5626 2.81267C11.5626 3.06131 11.6613 3.29977 11.8371 3.47558C12.013 3.6514 12.2514 3.75017 12.5001 3.75017Z" fill="#4F2B72"/>
</svg>
