<svg width="65" height="66" viewBox="0 0 65 66" fill="none" xmlns="http://www.w3.org/2000/svg">
  <path d="M40.4455 39.9261C40.738 39.3879 40.6684 39.1422 41.4036 36.9819C41.7611 35.9296 42.1446 34.8789 42.5837 33.8567C42.6357 33.7358 42.4618 33.6292 42.4026 33.7511C41.6834 35.2055 41.0695 36.7097 40.5657 38.252C40.357 38.7636 40.218 39.3009 40.1523 39.8494C40.1538 39.8833 40.1661 39.9157 40.1874 39.9421C40.2087 39.9684 40.2379 39.9873 40.2706 39.9958C40.3034 40.0044 40.3381 40.0023 40.3695 39.9897C40.401 39.9772 40.4276 39.9549 40.4455 39.9261Z" fill="#4F2B72"/>
  <path d="M39.2449 37.4575C38.0258 37.7409 37.7044 37.8654 36.2266 37.553C36.107 37.5277 36.019 37.6973 36.1415 37.7601C37.0674 38.2346 38.4545 38.2801 39.3541 37.7133C39.3826 37.6955 39.4038 37.6681 39.4139 37.6361C39.424 37.6041 39.4223 37.5695 39.4091 37.5386C39.3959 37.5077 39.3721 37.4826 39.342 37.4677C39.3119 37.4528 39.2775 37.4492 39.2449 37.4575Z" fill="#4F2B72"/>
  <path d="M44.4453 29.252C44.4308 29.2304 44.4086 29.2151 44.3832 29.2093C44.3578 29.2035 44.3312 29.2075 44.3087 29.2206C44.2862 29.2338 44.2696 29.255 44.2622 29.2799C44.2548 29.3049 44.2571 29.3318 44.2688 29.355C44.5746 29.9869 45.0123 30.5458 45.5525 30.994C46.0927 31.4422 46.7227 31.7694 47.4001 31.9533C48.0775 32.1373 48.7865 32.1738 49.4792 32.0604C50.1719 31.947 50.8322 31.6863 51.4156 31.2959C52.0266 30.9001 52.8544 30.2234 53.1205 29.4759C53.3243 29.6709 54.5226 30.7932 54.532 30.7964C52.8274 32.9414 50.5605 34.6395 47.7314 34.7832C45.0206 34.921 41.7514 33.5761 40.8599 30.8058C40.8513 30.7838 40.8349 30.7657 40.8138 30.7551C40.7926 30.7445 40.7683 30.742 40.7455 30.7483C40.7227 30.7546 40.7031 30.7691 40.6903 30.789C40.6776 30.8089 40.6727 30.8329 40.6766 30.8562C41.3529 34.4819 47.3648 36.9639 52.1426 33.7204C53.2459 33.0355 54.1464 32.0685 54.7511 30.9193C55.0078 30.3856 53.076 28.914 52.9158 29.0781C52.6321 29.3687 52.4497 29.7525 52.1787 30.0593C51.7596 30.5348 51.2503 30.9224 50.6803 31.1997C50.1103 31.477 49.491 31.6384 48.8582 31.6746C47.0772 31.7571 45.393 30.7249 44.4453 29.252Z" fill="#4F2B72"/>
  <path d="M53.6317 28.7721C53.4292 28.2469 53.709 27.8693 53.9869 27.4552C53.9988 27.4322 54.0039 27.4063 54.0016 27.3805C53.9993 27.3547 53.9896 27.3301 53.9738 27.3096C53.9579 27.2891 53.9365 27.2735 53.9122 27.2648C53.8878 27.2561 53.8614 27.2545 53.8361 27.2602C53.1975 27.4855 53.1494 28.3522 53.41 28.8664C53.4702 28.984 53.6808 28.8999 53.6317 28.7721Z" fill="#4F2B72"/>
  <path d="M54.3077 27.5298C54.5917 27.2698 54.7957 27.3551 54.9197 27.7856C54.8985 27.9136 55.0055 28.0924 55.1611 28.0277C55.3942 27.9302 55.6792 28.1749 55.3938 28.4021C55.2313 28.5321 55.4081 28.8035 55.594 28.743C55.8833 28.8139 55.9515 28.9546 55.8063 29.1691C55.6418 29.4109 55.3584 29.4824 55.1338 29.6261C55.0973 29.6482 55.0699 29.6827 55.0566 29.7233C55.0434 29.7639 55.0452 29.8079 55.0617 29.8473C55.0782 29.8867 55.1083 29.9189 55.1466 29.9379C55.1848 29.957 55.2286 29.9616 55.27 29.9511C55.7533 29.8753 56.3032 29.4892 56.2999 28.9478C56.2993 28.8238 56.2625 28.7027 56.194 28.5993C56.1255 28.4959 56.0284 28.4147 55.9145 28.3657C55.9387 28.2733 55.9409 28.1765 55.921 28.0831C55.9011 27.9897 55.8597 27.9022 55.8 27.8276C55.7403 27.7531 55.664 27.6935 55.5771 27.6537C55.4903 27.6139 55.3954 27.595 55.2999 27.5984C55.2757 27.472 55.2136 27.3559 55.1218 27.2657C55.0301 27.1755 54.913 27.1153 54.7862 27.0933C54.6594 27.0713 54.5288 27.0884 54.412 27.1424C54.2952 27.1964 54.1976 27.2847 54.1322 27.3956C54.0594 27.5019 54.2199 27.6211 54.3077 27.5298Z" fill="#4F2B72"/>
  <path d="M36.175 28.2676C36.1022 28.3829 36.278 28.4808 36.3557 28.3732C36.9725 27.5292 37.7851 26.8476 38.7237 26.3871C39.6577 25.9211 40.6087 25.8278 41.6126 25.6429C41.6386 25.6346 41.6622 25.62 41.6812 25.6004C41.7002 25.5808 41.7141 25.5568 41.7215 25.5305C41.7289 25.5042 41.7297 25.4765 41.7238 25.4498C41.7179 25.4231 41.7055 25.3984 41.6877 25.3777C42.0286 24.8508 43.0611 26.1011 43.2818 26.3494C43.6763 26.7982 43.9981 27.3059 44.2357 27.8542C44.2883 27.9738 44.4453 27.8967 44.4563 27.7944C44.48 27.4546 44.3878 27.1169 44.1947 26.8363C44.3046 26.6857 44.3951 26.5219 44.4641 26.3488C44.6324 26.4754 44.8285 26.5599 45.0362 26.5953C45.2438 26.6306 45.4568 26.6157 45.6575 26.5519C46.0081 26.4269 46.3174 26.2076 46.5512 25.918C46.7851 25.6285 46.9345 25.28 46.9829 24.911C47.3121 25.1147 47.6329 24.703 47.705 24.4592C47.8058 24.0097 47.8441 23.5484 47.8191 23.0884C47.8191 22.9177 47.8191 22.7474 47.8116 22.581C48.4291 22.438 48.8588 21.814 48.8841 20.9827C48.8965 20.5803 48.8396 20.1572 48.4441 19.9599C47.9241 19.6999 47.4983 20.1673 47.0017 20.0451C46.4054 19.8985 46.2578 18.9628 45.6517 18.8731C45.2971 18.8208 45.0176 19.0788 44.7141 19.203C44.3774 19.3405 44.0455 19.2183 43.715 19.3512C42.3562 19.8975 42.2077 22.7611 43.0286 23.7985C42.7479 24.1495 42.4986 24.5246 42.2837 24.9194C41.7787 24.6799 41.387 24.9448 41.3412 25.3029C39.7819 25.1817 37.4627 26.224 36.175 28.2676ZM43.3552 23.9564C43.6477 23.9129 44.2844 23.0867 44.2844 23.0867C44.2844 23.0867 44.1482 22.4445 44.4121 22.2395C44.5071 22.1615 44.6243 22.1157 44.7469 22.1085C44.8695 22.1013 44.9912 22.1332 45.0946 22.1995C45.1795 22.2625 45.248 22.3571 45.3504 22.3698C45.6153 22.4023 45.5815 21.9886 45.8441 21.9206C46.3121 21.8001 46.4616 22.4965 47.4021 22.6087C47.4021 22.7426 47.3485 24.1839 47.3349 24.246C47.3349 24.4287 47.214 24.5018 46.965 24.4735C46.8025 24.4452 46.7092 24.441 46.6751 24.5034C46.3878 25.0351 46.4076 25.6237 45.8337 25.99C45.7014 26.0807 45.5509 26.1416 45.3927 26.1682C45.2345 26.1948 45.0724 26.1866 44.9177 26.1442C44.763 26.1017 44.6194 26.026 44.4969 25.9224C44.3745 25.8188 44.2761 25.6896 44.2087 25.5441C44.1762 25.4592 44.0251 25.4589 44.0384 25.5671C44.0611 25.7611 44.1303 25.9468 44.2402 26.1083C44.1375 26.2433 44.057 26.3938 44.0017 26.5542C43.9838 26.5304 43.2642 25.4349 42.5236 25.0549C42.6994 24.8664 43.2408 24.1189 43.3552 23.9564Z" fill="#4F2B72"/>
  <path d="M46.2802 23.1348C46.1462 23.2394 46.051 23.3858 46.0098 23.5508C45.9987 23.5942 46.0034 23.6401 46.0232 23.6803C46.043 23.7205 46.0766 23.7523 46.1178 23.7699C46.159 23.7875 46.2051 23.7897 46.2479 23.7763C46.2906 23.7628 46.3271 23.7344 46.3507 23.6964C46.4397 23.5655 46.4867 23.4107 46.4856 23.2524C46.483 23.1621 46.3699 23.0659 46.2802 23.1348Z" fill="#4F2B72"/>
  <path d="M45.9038 23.1043C46.0458 23.0503 46.1866 22.9996 46.3231 22.934C46.3901 22.9129 46.4522 22.8788 46.5059 22.8336C46.5597 22.7883 46.6039 22.7329 46.636 22.6704C46.6443 22.6391 46.6401 22.6058 46.6241 22.5776C46.6081 22.5494 46.5817 22.5286 46.5505 22.5196C46.4152 22.5052 46.2795 22.5426 46.1706 22.6243C46.0434 22.6973 45.9202 22.7771 45.8014 22.8631C45.687 22.9428 45.7537 23.1612 45.9038 23.1043Z" fill="#4F2B72"/>
  <path d="M46.0228 25.2082C46.04 25.1898 46.053 25.1678 46.0608 25.1437C46.0685 25.1197 46.0709 25.0943 46.0676 25.0693C46.0643 25.0442 46.0555 25.0203 46.0419 24.999C46.0282 24.9778 46.0101 24.9599 45.9886 24.9465C45.6826 24.8743 45.361 24.9103 45.0786 25.0486C45.0592 25.0682 45.0483 25.0947 45.0483 25.1224C45.0483 25.15 45.0592 25.1765 45.0786 25.1961C45.3814 25.3149 45.7171 25.3192 46.0228 25.2082Z" fill="#4F2B72"/>
  <path d="M50.1366 22.4416C50.6401 22.2251 50.3905 21.5137 49.5406 21.9489C49.4165 22.0053 49.3051 22.0862 49.213 22.1867C49.1209 22.2873 49.0501 22.4053 49.0047 22.5339C48.9741 22.6496 49.8757 22.5534 50.1366 22.4416Z" fill="#4F2B72"/>
  <path d="M49.7573 23.3325C49.6517 23.2944 49.6036 23.4384 49.6832 23.5089C50.1707 23.9422 50.1165 24.2564 50.2621 24.3377C50.3048 24.3623 50.3554 24.3693 50.4032 24.3572C50.4509 24.345 50.4921 24.3147 50.5178 24.2727C50.6348 24.0692 50.6218 23.6451 49.7573 23.3325Z" fill="#4F2B72"/>
  <path d="M29.0357 28.9483C29.4621 28.6174 29.7966 28.1829 30.2574 27.8777C30.7698 27.5282 31.3506 27.2914 31.9612 27.1827C32.5719 27.0741 33.1987 27.0962 33.8002 27.2476C34.3833 27.3935 34.8588 27.7328 35.4197 27.9301C35.5822 27.9863 35.6563 27.7802 35.5708 27.6743C35.1682 27.1761 34.3934 26.9268 33.7892 26.7935C33.1495 26.652 32.4878 26.641 31.8437 26.761C30.3812 27.0347 29.209 28.0386 28.908 28.711C28.5024 28.4236 28.2092 28.0042 28.0786 27.5245C28.6032 26.9284 28.8508 26.2261 30.1697 25.4038C31.6585 24.4753 34.2513 23.7707 36.7077 24.0161C37.9738 24.1789 39.209 24.5276 40.3734 25.0509C40.4774 25.0935 40.5336 24.9316 40.4465 24.876C37.2456 22.8285 32.419 23.4041 29.8414 25.0772C29.025 25.6076 27.9889 26.4676 27.7257 27.4478C27.623 27.8244 28.7832 29.3867 29.0357 28.9483Z" fill="#4F2B72"/>
  <path d="M26.3103 28.796C26.9278 28.8467 27.1384 29.121 27.428 29.1905C27.4625 29.1988 27.4986 29.1969 27.5321 29.1851C27.5655 29.1733 27.5948 29.152 27.6164 29.1239C27.6381 29.0958 27.6511 29.062 27.6539 29.0266C27.6567 28.9913 27.6493 28.9559 27.6324 28.9247C27.5886 28.8512 27.5306 28.7871 27.4618 28.7362C27.6082 28.586 27.7333 28.4166 27.8336 28.2324C27.84 28.2058 27.8385 28.1779 27.8294 28.152C27.8202 28.1262 27.8038 28.1036 27.7821 28.0869C27.7603 28.0702 27.7342 28.0602 27.7069 28.0581C27.6796 28.0559 27.6523 28.0617 27.6282 28.0748C27.5113 28.149 27.4116 28.2473 27.3357 28.3631C27.2749 28.4372 27.2154 28.5122 27.1582 28.5889C26.8698 28.5188 26.5693 28.5141 26.2788 28.5753C26.1511 28.6016 26.1901 28.7862 26.3103 28.796Z" fill="#4F2B72"/>
  <path d="M28.3817 30.9674C28.4849 30.7033 28.5019 30.4132 28.4302 30.1389C28.3585 29.8645 28.2019 29.6198 27.9826 29.4399C27.9349 29.4042 27.8712 29.4536 27.8702 29.5049C27.863 29.8358 28.0307 30.1416 28.0327 30.4705C28.0424 30.5761 28.0247 30.6824 27.9814 30.7791C27.938 30.8759 27.8705 30.9599 27.7854 31.023C27.6558 31.0739 27.5199 31.1067 27.3814 31.1205C27.3523 31.1283 27.3259 31.1437 27.3047 31.165C27.2834 31.1863 27.2682 31.2128 27.2606 31.2419C27.2529 31.271 27.253 31.3016 27.2609 31.3306C27.2688 31.3596 27.2843 31.386 27.3057 31.4071C27.681 31.7279 28.2212 31.3512 28.3817 30.9674Z" fill="#4F2B72"/>
  <path d="M26.8197 31.3123C26.8518 31.158 26.9174 31.0125 27.0118 30.8863C27.0989 30.7667 27.2604 30.6877 27.3202 30.5453C27.3332 30.5215 27.3398 30.4948 27.3395 30.4677C27.3392 30.4406 27.3319 30.414 27.3184 30.3905C27.3049 30.367 27.2857 30.3473 27.2624 30.3333C27.2392 30.3194 27.2128 30.3116 27.1857 30.3107C26.9257 30.2847 26.5191 30.715 26.5617 31.273C26.5724 31.4163 26.7898 31.4674 26.8197 31.3123Z" fill="#4F2B72"/>
  <path d="M26.8833 29.8017C26.3633 29.57 25.8611 30.1995 25.7133 30.621C25.6538 30.7917 25.9167 30.9009 26.0058 30.7445C26.3005 30.2245 26.6795 30.2275 26.907 29.9928C26.9199 29.9796 26.9297 29.9636 26.9356 29.9461C26.9415 29.9285 26.9434 29.9099 26.9411 29.8916C26.9388 29.8732 26.9325 29.8556 26.9224 29.84C26.9124 29.8245 26.899 29.8114 26.8833 29.8017Z" fill="#4F2B72"/>
  <path d="M25.1991 30.1519C25.193 30.1805 25.1969 30.2103 25.2104 30.2363C25.2238 30.2623 25.2458 30.2828 25.2727 30.2943C25.2996 30.3058 25.3296 30.3076 25.3577 30.2994C25.3858 30.2913 25.4101 30.2736 25.4266 30.2494C25.7571 29.7125 26.1608 29.7209 26.3789 29.5061C26.3965 29.4879 26.4091 29.4653 26.4155 29.4408C26.4219 29.4162 26.4218 29.3904 26.4152 29.3659C26.4087 29.3413 26.3959 29.3189 26.3782 29.3008C26.3604 29.2826 26.3382 29.2694 26.3139 29.2624C25.9885 29.145 25.3593 29.5019 25.1991 30.1519Z" fill="#4F2B72"/>
  <path d="M24.493 29.426C24.6815 29.363 24.7871 29.1797 24.9847 29.1335C25.0917 29.109 25.2028 29.1081 25.3102 29.131C25.4175 29.1538 25.5186 29.1998 25.6064 29.2658C25.7465 29.3698 25.8664 29.1576 25.7767 29.0432C25.6846 28.9111 25.5566 28.8081 25.4079 28.7463C25.2591 28.6845 25.0959 28.6665 24.9372 28.6944C24.6662 28.7409 24.2661 28.9502 24.2928 29.2742C24.2931 29.2985 24.2989 29.3223 24.3099 29.3439C24.3208 29.3655 24.3365 29.3844 24.3558 29.399C24.3751 29.4137 24.3975 29.4237 24.4213 29.4284C24.445 29.433 24.4696 29.4322 24.493 29.426Z" fill="#4F2B72"/>
  <path d="M27.8198 32.7256C28.1123 32.9158 28.4292 32.4981 28.4698 32.2485C28.5156 31.9755 28.3369 31.581 28.0103 31.6099C27.9892 31.6106 27.9687 31.6166 27.9506 31.6275C27.9325 31.6383 27.9176 31.6536 27.9071 31.6719C27.8966 31.6901 27.8909 31.7108 27.8907 31.7319C27.8904 31.7529 27.8956 31.7737 27.9056 31.7922C27.9661 31.9096 28.0681 32.0344 28.0385 32.1777C28.006 32.3363 27.8195 32.3483 27.7555 32.4871C27.734 32.5276 27.7287 32.5748 27.7406 32.619C27.7526 32.6633 27.7809 32.7014 27.8198 32.7256Z" fill="#4F2B72"/>
  <path d="M42.7006 28.5623C42.9668 28.5658 43.5394 28.7436 43.8423 28.6942C43.8429 28.751 43.8591 28.8065 43.8892 28.8546C43.9192 28.9028 43.9619 28.9417 44.0126 28.9672C44.126 29.0194 44.2517 29.039 44.3755 29.0238C44.4994 29.0086 44.6166 28.9592 44.714 28.8811C44.8113 28.803 44.885 28.6993 44.9267 28.5817C44.9685 28.4641 44.9766 28.3371 44.9503 28.2152C44.8563 27.8843 44.2028 27.8463 43.9197 28.3533C43.4832 27.8274 42.3317 27.4033 41.7487 27.39C39.1932 27.3315 38.4555 28.4089 36.6962 29.145C34.937 29.8811 34.2243 28.8099 33.9948 28.7059C33.4833 28.4739 31.454 28.728 31.3207 28.9129C31.1703 29.1219 31.6539 30.952 31.9915 31.2042C32.1053 31.2893 34.4186 31.8477 35.5617 31.7541C38.94 31.4778 39.3502 29.6143 41.5072 28.7699C41.8878 28.6241 42.2931 28.5535 42.7006 28.5623Z" fill="#4F2B72"/>
  <path d="M51.6556 60.8808C50.3497 61.8486 49.1502 60.012 47.9473 59.7826C46.7643 59.557 45.9691 60.8115 46.0623 61.8668C45.2498 62.004 36.4904 61.8343 34.4744 61.8363C32.4585 61.8382 26.6871 61.898 25.95 61.5132C25.2422 61.1437 25.0309 60.2886 24.34 59.9064C23.6627 59.5317 22.8697 59.7309 22.1492 59.8209C21.2863 59.9277 20.4151 59.7029 19.7117 59.1921C18.7191 58.4741 18.3099 57.2827 17.4588 56.4344C17.1417 56.0742 16.6954 55.8535 16.2166 55.8205C15.5721 55.8205 15.1704 56.284 14.7801 56.7328C13.5562 58.14 11.8356 57.1351 10.9562 55.8914C10.2187 54.8481 9.59115 53.5189 8.27198 53.1217C7.94454 53.0189 7.59644 53.0007 7.26004 53.0685C6.92363 53.1364 6.60985 53.2882 6.34785 53.5098C6.08585 53.7315 5.88415 54.0158 5.7615 54.3363C5.63884 54.6568 5.59922 55.0031 5.6463 55.3431C5.05991 55.2136 4.44696 55.2863 3.90715 55.5494C3.36734 55.8126 2.93245 56.2506 2.6732 56.7923C2.49491 57.1709 2.43858 57.5955 2.51199 58.0075C2.58541 58.4195 2.78494 58.7985 3.08303 59.0923C2.77144 59.1396 2.47874 59.2713 2.23663 59.473C1.99452 59.6748 1.81223 59.939 1.70952 60.2369C1.60681 60.5349 1.58759 60.8552 1.65394 61.1633C1.72029 61.4714 1.86968 61.7555 2.08593 61.9848C2.27085 62.1996 2.57668 61.8873 2.39533 61.6744C2.20537 61.454 2.09431 61.1766 2.07974 60.886C2.06517 60.5954 2.14792 60.3083 2.31488 60.07C2.48185 59.8318 2.7235 59.656 3.0016 59.5705C3.2797 59.485 3.57837 59.4947 3.85035 59.598C4.08533 59.6818 4.25335 59.2915 4.02098 59.1921C3.10025 58.7991 2.63843 57.8596 3.10188 56.9229C3.35514 56.4338 3.78147 56.0565 4.29778 55.8646C4.81408 55.6726 5.38335 55.6799 5.8946 55.8849C5.93246 55.8947 5.97224 55.8946 6.01 55.8843C6.04777 55.8741 6.08219 55.8541 6.10985 55.8265C6.13752 55.7988 6.15747 55.7644 6.16771 55.7266C6.17796 55.6888 6.17814 55.6491 6.16825 55.6112C5.59755 53.9719 7.49913 52.6388 9.0731 54.0954C9.95873 54.9151 10.3884 56.1049 11.2529 56.945C12.1375 57.8046 13.6832 58.2954 14.7265 57.425C15.2055 57.0253 15.5643 56.205 16.2943 56.271C17.541 56.3834 18.1143 58.7982 19.8274 59.7998C20.4651 60.1776 21.2041 60.3489 21.9431 60.2902C22.726 60.2236 23.7306 59.8642 24.3777 60.4852C24.8402 60.9292 24.9845 61.5802 25.8883 61.9728C26.5269 62.2503 31.7828 62.2809 33.7101 62.2799C35.896 62.2799 45.4517 62.4716 46.3678 62.2549C46.4236 62.2378 46.4707 62.2001 46.4994 62.1493C46.5282 62.0986 46.5363 62.0388 46.5222 61.9822C46.4349 61.615 46.4841 61.2287 46.6605 60.8951C46.837 60.5615 47.1287 60.3035 47.4813 60.169C48.0559 59.9877 48.6155 60.4254 49.0676 60.7231C49.8606 61.2451 50.9383 61.7631 51.7953 61.0641C51.8997 60.9805 51.7638 60.8005 51.6556 60.8808Z" fill="#4F2B72"/>
  <path d="M39.5566 39.9499C38.1925 40.2211 36.7976 40.3025 35.4112 40.192C34.0582 40.077 31.9571 39.6259 31.5453 39.0487C31.8931 37.9408 32.1336 36.7906 32.5086 35.6843C33.2236 33.5744 33.5961 33.0355 33.8623 32.1782C33.8696 32.1478 33.8659 32.1158 33.8518 32.0879C33.8377 32.06 33.8142 32.038 33.7854 32.0259C33.7565 32.0138 33.7244 32.0123 33.6946 32.0218C33.6648 32.0312 33.6393 32.0509 33.6227 32.0774C32.1755 34.3313 31.5197 38.7022 30.7553 40.075C30.1935 41.0863 29.5464 42.0477 28.8209 42.9487C27.7896 44.0985 26.5689 44.9221 25.3261 45.8087C24.1145 45.8272 21.2809 46.2988 17.5502 44.7482C17.3617 44.5162 15.9876 43.8957 15.6203 44.0118C15.3558 44.0969 14.0005 45.7164 13.594 46.3703C13.4477 46.6046 12.6053 48.0252 12.6963 48.3112C12.714 48.354 12.7446 48.3901 12.7839 48.4146C12.8232 48.4391 12.8692 48.4507 12.9154 48.4477C12.9956 48.4477 14.3675 47.8406 15.258 47.4438C15.0605 47.2153 14.9153 46.9464 14.8325 46.656C14.8231 46.5536 14.946 46.5052 15.0243 46.5458C15.2646 46.7532 15.4605 47.007 15.6002 47.292C15.6073 47.2887 15.6285 47.2787 15.9002 47.162C15.7328 46.928 15.4409 46.4795 15.4907 46.3134C15.4998 46.2818 15.5189 46.2539 15.5451 46.2339C15.5714 46.214 15.6033 46.203 15.6363 46.2026C15.8842 46.2325 16.126 46.7447 16.2538 47.0079C16.3188 46.9797 16.3821 46.9507 16.4452 46.9218C16.3627 46.6506 16.3043 46.3726 16.2707 46.0911C16.2811 46.0542 16.3057 46.023 16.339 46.004C16.3723 45.985 16.4117 45.9799 16.4488 45.9897C16.6412 46.0407 16.7822 46.4567 16.8267 46.7372C16.8923 46.7052 16.9545 46.6666 17.0123 46.6222C17.8916 47.3618 18.8847 47.9545 19.9532 48.3772C25.3837 50.6882 31.4189 49.1806 34.9465 45.5718C35.0924 45.4206 34.874 45.2084 34.719 45.3443C30.375 49.1009 25.2488 49.9238 20.5815 48.1656C19.3977 47.6784 18.2629 47.0799 17.1924 46.3781C17.388 45.9651 17.5616 45.542 17.7124 45.1106C19.8713 46.0729 23.3534 46.7782 25.5956 46.0336C25.6648 46.0099 28.2238 44.2744 29.1758 43.208C29.697 42.6255 30.1654 41.9979 30.5755 41.3325C30.9726 40.7584 31.2897 40.133 31.518 39.4735C32.9757 40.5167 35.8308 40.7172 37.6121 40.5944C38.2429 40.5502 39.0613 40.5183 39.63 40.2115C39.6559 40.1953 39.6758 40.1711 39.6868 40.1425C39.6978 40.114 39.6993 40.0827 39.691 40.0533C39.6827 40.0239 39.6652 39.9979 39.641 39.9793C39.6167 39.9606 39.5871 39.9503 39.5566 39.9499Z" fill="#4F2B72"/>
  <path d="M57.1673 56.7959C57.063 56.7032 56.9265 56.6551 56.7871 56.662C55.7141 56.6673 54.6498 56.8541 53.6391 57.2145C46.2191 48.4164 41.1361 41.335 40.4077 40.4556C40.3385 40.3704 40.202 40.4796 40.2586 40.57C41.1686 42.0455 44.493 46.4642 45.245 47.4525C47.7719 50.7711 50.5425 54.2271 53.24 57.3705C53.1676 57.403 51.6306 58.4888 51.5445 58.5938C51.1233 58.0989 50.6593 57.6421 50.1577 57.2288C48.601 55.793 36.2802 44.4102 34.6068 43.0861C34.5093 43.0084 34.3767 43.1303 34.4661 43.2268C35.6744 44.5174 41.2787 49.6745 49.6335 57.3422C50.1922 57.8551 50.7414 58.4752 51.3996 58.8639C51.278 59.3689 51.9085 60.3914 52.7389 60.3709C53.1045 60.3615 57.1716 57.3023 57.2167 57.1736C57.2425 57.1119 57.2516 57.0444 57.2429 56.9781C57.2342 56.9118 57.2081 56.8489 57.1673 56.7959ZM54.5537 58.1076C54.5466 58.1309 54.5336 58.152 54.5161 58.1689C54.4985 58.1858 54.4769 58.198 54.4534 58.2042C54.4298 58.2105 54.4051 58.2106 54.3815 58.2046C54.3578 58.1986 54.3361 58.1867 54.3184 58.17C54.1989 57.9162 54.1215 57.6446 54.0893 57.366C54.081 57.3313 54.0865 57.2948 54.1046 57.2641C54.1227 57.2334 54.152 57.211 54.1864 57.2015C54.2207 57.192 54.2574 57.1962 54.2887 57.2133C54.32 57.2303 54.3435 57.2588 54.3541 57.2928C54.4653 57.5516 54.533 57.8269 54.5547 58.1076H54.5537ZM55.1 57.8587C55.0951 57.8756 55.0864 57.8913 55.0745 57.9044C55.0627 57.9176 55.0481 57.9279 55.0317 57.9347C55.0154 57.9414 54.9977 57.9444 54.9801 57.9434C54.9624 57.9424 54.9452 57.9374 54.9297 57.9289C54.8317 57.839 54.7557 57.7278 54.7078 57.6037C54.6599 57.4797 54.6413 57.3463 54.6535 57.2139C54.6457 57.028 54.9135 57.0101 54.9619 57.1719C55.0726 57.383 55.1208 57.6212 55.101 57.8587H55.1ZM55.7035 57.6442C55.6979 57.6647 55.6877 57.6837 55.6737 57.6997C55.6596 57.7157 55.6421 57.7283 55.6224 57.7365C55.6028 57.7447 55.5815 57.7483 55.5603 57.7471C55.539 57.7458 55.5183 57.7398 55.4998 57.7293C55.3257 57.5782 55.2119 57.3693 55.1793 57.1411C55.1654 57.1002 55.1675 57.0556 55.1852 57.0163C55.2029 56.9769 55.2348 56.9457 55.2746 56.9289C55.3143 56.9122 55.3589 56.9111 55.3995 56.9259C55.44 56.9407 55.4734 56.9703 55.4929 57.0088C55.6387 57.1876 55.7141 57.4136 55.7048 57.6442H55.7035Z" fill="#4F2B72"/>
  <path d="M30.3144 34.8765C27.6935 33.0507 25.2979 30.921 23.1777 28.5319C22.7361 28.035 22.2092 27.4825 21.5446 27.514C20.9018 27.5449 15.8535 33.1622 16.2442 33.884C16.6348 34.6058 17.8185 35.6783 18.2072 36.0124C19.4721 37.0976 24.8297 41.7347 25.3247 41.9469C25.5339 42.0595 25.7775 42.0905 26.0082 42.0338C26.2389 41.9771 26.4404 41.8368 26.5737 41.6401C26.9377 41.1744 31.8104 35.9182 30.3144 34.8765ZM24.0923 32.1846C23.609 31.7916 21.8046 29.7175 21.5248 29.6759C21.0337 29.6034 20.5173 30.4338 20.2368 30.7747C19.8429 31.2495 19.4474 31.7302 19.0902 32.234C19.0135 32.3415 18.837 32.2434 18.9095 32.1283C19.332 31.4608 19.7568 30.8079 20.242 30.1822C20.543 29.7893 20.8943 29.2284 21.4406 29.1926C22.0256 29.1543 22.4322 29.7737 22.7731 30.1514C23.3399 30.7262 23.863 31.3426 24.338 31.9954C24.4452 32.1547 24.2194 32.2886 24.0923 32.1846Z" fill="#4F2B72"/>
  <path d="M40.961 10.8011C41.0802 10.6855 41.1711 10.544 41.2267 10.3875C41.2823 10.2311 41.3011 10.0639 41.2817 9.89904C41.2622 9.73415 41.205 9.57597 41.1145 9.43678C41.024 9.29759 40.9026 9.18113 40.7598 9.09644C40.2629 8.78867 39.7371 8.87154 39.1862 8.89527C38.7601 8.91347 35.9661 8.95019 35.1305 9.41527C34.9069 9.55947 34.749 9.78586 34.6909 10.0455C34.6328 10.3052 34.6792 10.5773 34.8201 10.803C31.8103 11.1133 28.8713 11.9132 26.1192 13.171C22.9176 14.6883 20.0716 16.8632 17.7667 19.554C12.672 25.3445 9.95991 32.7314 12.0636 40.2792C12.3386 41.2698 12.7127 42.2302 13.1803 43.1457C13.7527 44.2637 15.6802 43.487 15.2373 42.2789C13.8856 38.5944 13.3012 35.919 13.9883 32.0369C14.8785 27.0114 17.7576 22.6535 21.4685 19.149C24.8781 15.9289 29.2106 13.8902 34.2618 13.246C38.766 12.6718 43.3208 13.3364 46.1448 14.4037C51.7806 16.5331 56.3897 21.2238 58.3323 25.0881C60.3967 29.1909 60.8595 32.4529 60.9612 33.9872C61.0161 34.8124 61.0463 37.7897 59.5487 43.6722C59.1262 45.3297 58.4174 46.6791 57.6069 48.2167C56.8646 49.6139 56.0325 50.9616 55.1161 52.2512C54.6679 52.8206 54.2454 53.4076 53.7709 53.9562C53.3383 54.456 53.8889 55.2962 54.5099 54.9143C57.419 53.1268 59.4499 50.0741 60.7847 46.9866C62.2734 43.6413 63.1433 40.0539 63.3522 36.3984C63.8914 24.6825 54.9958 12.3058 40.961 10.8011Z" fill="#1AC577"/>
  <path d="M46.8036 56.9253C44.9479 57.0413 43.7961 58.1226 39.6585 58.4888C32.0629 59.1609 23.8369 56.4797 18.2703 50.3369C17.807 49.8897 17.4121 49.3768 17.0983 48.8146C16.8789 48.3511 16.2358 48.6976 16.3183 49.1428C16.5998 50.6453 17.4516 51.957 18.4402 53.0964C21.7751 56.9383 25.9061 59.0608 30.8634 60.2048C36.0507 61.4018 41.1181 61.1041 45.3155 59.7411C46.1186 59.5345 46.8674 59.1564 47.5105 58.6328C48.141 58.0689 47.6597 56.872 46.8036 56.9253Z" fill="#1AC577"/>
  <path d="M23.6416 20.7066C23.1362 20.3238 22.4771 19.7817 21.818 19.7891C21.7027 19.7918 21.5895 19.8204 21.4868 19.8728C21.3841 19.9253 21.2945 20.0003 21.2248 20.0921C21.1551 20.184 21.107 20.2904 21.0841 20.4034C21.0612 20.5165 21.0641 20.6332 21.0926 20.745C21.191 21.085 21.3737 21.3946 21.6236 21.6452C22.271 22.4109 22.9955 23.1079 23.7855 23.7252C23.9943 23.8453 24.2367 23.8936 24.4756 23.8629C24.7145 23.8321 24.9367 23.7239 25.1083 23.5549C25.2813 23.3854 25.3922 23.1627 25.4231 22.9225C25.4541 22.6823 25.4033 22.4387 25.2789 22.2309C24.8056 21.6501 24.2547 21.1372 23.6416 20.7066Z" fill="#1AC577"/>
  <path d="M37.4295 19.4295C37.4857 19.5657 37.5704 19.6882 37.6779 19.7889C37.7855 19.8895 37.9133 19.966 38.0529 20.0131C38.1925 20.0602 38.3405 20.0768 38.487 20.0619C38.6336 20.0469 38.7752 20.0007 38.9024 19.9264C39.7344 19.422 39.4451 17.8321 39.1913 16.8961C38.9963 16.1811 38.3915 14.2961 37.3365 15.1844C36.9446 15.5146 36.9745 16.084 37.0115 16.5494C37.137 18.239 37.2026 18.9245 37.4295 19.4295Z" fill="#1AC577"/>
  <path d="M54.2028 37.8582C54.8642 37.812 58.0625 37.8747 58.2841 37.8309C59.0336 37.6833 59.1971 36.4961 58.5025 36.161C58.2783 36.0528 54.727 36.1113 54.0016 36.369C53.8268 36.4202 53.676 36.5321 53.5764 36.6847C53.4768 36.8372 53.435 37.0203 53.4585 37.201C53.4815 37.3823 53.5698 37.549 53.7067 37.6699C53.8437 37.7909 54.0201 37.8578 54.2028 37.8582Z" fill="#1AC577"/>
  <path d="M55.1198 47.1944C55.5631 47.0078 55.9528 46.5723 55.7727 46.0439C55.5085 45.2681 52.7609 44.5645 52.1252 44.5654C51.3127 44.5671 51.2559 45.6379 51.9436 45.9048C52.4051 46.0851 54.4841 47.4615 55.1198 47.1944Z" fill="#1AC577"/>
  <path d="M36.5472 54.3071C36.5228 55.0416 36.4325 56.0111 36.8286 56.6546C37.1952 57.2506 38.2456 57.3774 38.5758 56.6546C38.9301 55.8794 38.7409 55.01 38.622 54.1927C38.5229 53.5102 38.4312 52.7272 38.062 52.1299C37.8183 51.735 37.1195 51.6492 36.8985 52.1299C36.639 52.8254 36.5196 53.5653 36.5472 54.3071Z" fill="#1AC577"/>
  <path d="M26.0924 53.6789C26.4779 53.3156 28.4373 51.8537 28.4142 51.1924C28.4151 51.0646 28.382 50.9389 28.3184 50.828C28.2548 50.7172 28.1629 50.6253 28.0522 50.5615C26.7681 50.0029 25.5779 51.5752 24.8733 52.4605C24.7161 52.6231 24.629 52.8409 24.6309 53.0671C24.6328 53.2932 24.7235 53.5096 24.8835 53.6694C25.0434 53.8293 25.2598 53.9199 25.486 53.9217C25.7122 53.9235 25.9299 53.8363 26.0924 53.6789Z" fill="#1AC577"/>
  <path d="M18.3248 37.6649C18.9098 37.3942 18.654 36.6022 18.1623 36.4189C17.2495 36.3077 16.3282 36.282 15.4105 36.3422C15.2119 36.397 15.0401 36.5226 14.9276 36.6953C14.815 36.868 14.7695 37.0759 14.7995 37.2798C14.8287 37.4824 14.929 37.6681 15.0825 37.8036C15.236 37.9391 15.4327 38.0156 15.6374 38.0195C16.5415 37.9761 17.4404 37.8575 18.3248 37.6649Z" fill="#1AC577"/>
  <path d="M34.0973 7.80463C35.5888 8.74713 38.9805 8.07341 41.0319 7.87808C42.4437 7.74353 42.6513 5.81758 42.4862 5.32066C42.3384 4.79902 41.9976 4.35319 41.533 4.07363C41.0055 3.79608 37.9834 4.07363 37.5157 4.09833C36.397 4.16008 35.1032 4.03073 34.0973 4.57836C32.8227 5.26963 32.9514 7.07891 34.0973 7.80463Z" fill="#1AC577"/>
  </svg>
  