<svg width="74" height="72" viewBox="0 0 74 72" fill="none" xmlns="http://www.w3.org/2000/svg">
<path fill-rule="evenodd" clip-rule="evenodd" d="M72.1652 45.7711H0.888672V43.4238H72.1652V45.7711Z" fill="#4F2B72"/>
<path d="M15.6338 2.16249C15.6338 1.16531 16.4422 0.356934 17.4393 0.356934H51.1L55.647 4.96533L61.1033 10.4954V57.5389C61.1033 58.5361 60.2949 59.3444 59.2978 59.3444H17.4393C16.4422 59.3444 15.6338 58.5361 15.6338 57.5389V2.16249Z" fill="#FBFBFB"/>
<path fill-rule="evenodd" clip-rule="evenodd" d="M49.9264 2.70416H17.981V56.9972H58.7561V11.669H52.9056C51.2602 11.669 49.9264 10.3352 49.9264 8.68986V2.70416ZM61.1033 10.4954V57.5389C61.1033 58.5361 60.2949 59.3444 59.2978 59.3444H17.4393C16.4422 59.3444 15.6338 58.5361 15.6338 57.5389V2.16249C15.6338 1.16531 16.4422 0.356934 17.4393 0.356934H51.1L61.1033 10.4954ZM52.2736 4.88838L56.6479 9.3218H52.9056C52.5566 9.3218 52.2736 9.03887 52.2736 8.68986V4.88838Z" fill="#4F2B72"/>
<path d="M22.7666 31.5771H54.2391V33.5428H22.7666V31.5771Z" fill="#1AC577"/>
<path d="M22.7666 43.5527H54.2391V45.5184H22.7666V43.5527Z" fill="#1AC577"/>
<path d="M22.7666 37.5649H34.8002V39.5306H22.7666V37.5649Z" fill="#1AC577"/>
<path d="M36.6299 37.5649H54.2175V39.5306H36.6299V37.5649Z" fill="#1AC577"/>
<path d="M73.1874 59.855C73.1874 66.2453 68.007 71.4257 61.6167 71.4257C55.2263 71.4257 50.0459 66.2453 50.0459 59.855C50.0459 53.4646 55.2263 48.2842 61.6167 48.2842C68.007 48.2842 73.1874 53.4646 73.1874 59.855Z" fill="#FBFBFB"/>
<path fill-rule="evenodd" clip-rule="evenodd" d="M61.6167 69.6202C67.0099 69.6202 71.3819 65.2481 71.3819 59.855C71.3819 54.4618 67.0099 50.0897 61.6167 50.0897C56.2235 50.0897 51.8515 54.4618 51.8515 59.855C51.8515 65.2481 56.2235 69.6202 61.6167 69.6202ZM61.6167 71.4257C68.007 71.4257 73.1874 66.2453 73.1874 59.855C73.1874 53.4646 68.007 48.2842 61.6167 48.2842C55.2263 48.2842 50.0459 53.4646 50.0459 59.855C50.0459 66.2453 55.2263 71.4257 61.6167 71.4257Z" fill="#4F2B72"/>
<path fill-rule="evenodd" clip-rule="evenodd" d="M66.4061 56.8717C66.7754 57.2159 66.7959 57.7943 66.4518 58.1636L60.4149 64.6433C60.2391 64.8319 59.9918 64.9376 59.734 64.9341C59.4761 64.9307 59.2317 64.8186 59.061 64.6253L55.8413 60.9805C55.5071 60.6022 55.5429 60.0245 55.9212 59.6903C56.2996 59.3561 56.8772 59.3919 57.2114 59.7702L59.7641 62.6599L65.1142 56.9174C65.4583 56.5481 66.0367 56.5276 66.4061 56.8717Z" fill="#1AC577"/>
<g clip-path="url(#clip0_6560_47203)">
<path d="M23.0392 20.3485L23.2711 19.9719C23.8386 19.0533 24.4641 18.3952 25.0967 17.9236C24.9441 17.4034 24.8628 16.868 24.8628 16.3165C24.8628 15.7183 24.9574 15.1316 25.1465 14.5534C25.3357 13.9762 25.6154 13.4599 25.9856 13.0044C26.3558 12.5489 26.8063 12.1818 27.3372 11.9032C27.8671 11.6245 28.4813 11.4857 29.179 11.4857C29.8472 11.4857 30.4473 11.6179 30.9771 11.8832C31.507 12.1485 31.9586 12.5051 32.3288 12.954C32.699 13.4018 32.9858 13.9192 33.1902 14.503C33.3936 15.0869 33.4953 15.6927 33.4953 16.3174C33.4953 16.8614 33.4129 17.3958 33.2573 17.9217C33.8909 18.3943 34.5184 19.0523 35.0869 19.9728L35.3158 20.3447C35.568 19.9614 35.7866 19.5535 35.9697 19.1198C36.3399 18.2431 36.526 17.3226 36.526 16.3574C36.526 15.4473 36.3511 14.5506 36.0033 13.6672C35.6544 12.7837 35.1602 11.9964 34.5204 11.3031C33.8807 10.6099 33.1108 10.0498 32.2098 9.62186C31.3087 9.19394 30.313 8.97998 29.2228 8.97998C28.162 8.97998 27.1806 9.18063 26.2795 9.58097C25.3784 9.98132 24.5973 10.5224 23.9363 11.2014C23.2742 11.8813 22.7585 12.662 22.3883 13.5454C22.0171 14.4289 21.832 15.3532 21.832 16.3174C21.832 17.2417 22.0059 18.1451 22.3548 19.0286C22.5399 19.4964 22.7697 19.9358 23.0392 20.3485Z" fill="#4F2B72"/>
<path d="M29.1778 21.8965C28.4923 22.6468 27.6624 23.1983 26.7949 23.6015C27.4458 24.1559 28.4628 24.9167 29.1554 24.9167C29.844 24.9167 30.8752 24.134 31.517 23.5825C30.6667 23.1812 29.8521 22.6344 29.1778 21.8965Z" fill="#4F2B72"/>
<path d="M29.178 18.363C30.5785 18.363 32.1884 18.5504 33.5716 20.7898C33.6509 20.9191 33.7282 21.0437 33.8025 21.1645C34.1859 21.7893 34.5215 22.336 34.9273 22.8695C34.2154 22.7792 33.4923 22.6023 32.8454 22.3541C31.5935 21.8748 30.6527 21.1645 30.0476 20.2421L29.7486 19.7866L29.178 18.9174L28.6075 19.7866L28.3085 20.243C27.7033 21.1654 26.7616 21.8758 25.5106 22.3551C24.8638 22.6023 24.1417 22.7792 23.4288 22.8705C23.8346 22.337 24.1702 21.7902 24.5536 21.1654C24.6279 21.0447 24.7041 20.9191 24.7845 20.7908C26.1676 18.5504 27.7776 18.363 29.178 18.363ZM29.178 17.7373C27.8376 17.7373 25.8269 17.8505 24.2048 20.477C23.4369 21.7198 22.9538 22.5842 21.9541 23.5523C22.0873 23.5609 22.2317 23.5656 22.3823 23.5656C24.2536 23.5656 27.3616 22.8828 28.879 20.5721L29.178 20.1166L29.477 20.5721C30.9934 22.8838 34.1015 23.5656 35.9738 23.5656C36.1253 23.5656 36.2687 23.5609 36.402 23.5523C35.4022 22.5842 34.9191 21.7198 34.1513 20.477C32.5291 17.8505 30.5185 17.7373 29.178 17.7373Z" fill="#4F2B72"/>
</g>
<defs>
<clipPath id="clip0_6560_47203">
<rect width="14.7469" height="15.9758" fill="white" transform="translate(21.7793 8.95898)"/>
</clipPath>
</defs>
</svg>
