<svg width="56" height="57" viewBox="0 0 56 57" fill="none" xmlns="http://www.w3.org/2000/svg">
  <path d="M28 0.154297C12.5558 0.154297 0 12.7101 0 28.1543C0 43.5985 12.5558 56.1543 28 56.1543C43.4442 56.1543 56 43.5985 56 28.1543C56 12.7101 43.4442 0.154297 28 0.154297ZM46.1558 43.1269L38.4337 35.4048C37.9621 36.9375 37.1958 38.2932 36.0758 39.3543L42.9726 46.2511C38.7284 49.729 33.4232 51.6743 28 51.6743C15.0316 51.6743 4.48 41.1227 4.48 28.1543C4.48 22.7311 6.42526 17.4259 9.90316 13.1817L17.6253 20.9038C18.0379 19.3711 18.8632 18.0153 19.9242 16.8953L13.0274 10.0575C17.2716 6.52061 22.5768 4.6343 28 4.6343C40.9684 4.6343 51.5789 15.1859 51.5789 28.1543C51.52 33.5775 49.6337 38.8827 46.1558 43.1269Z" fill="#4F2B72"/>
  <path d="M29.0021 25.8555H26.9389C26.2905 25.8555 25.6421 25.5608 25.2294 25.0892C24.7578 24.6176 24.581 23.9692 24.6399 23.3208C24.7578 22.1418 25.8189 21.2576 27.1157 21.2576H29.5326C30.2399 21.2576 30.8294 21.7292 31.0063 22.4366C31.0652 22.8492 31.4778 23.1439 31.8905 23.1439H34.6021C34.8378 23.1439 35.1326 23.026 35.3094 22.8492C35.4863 22.6724 35.5452 22.4366 35.5452 22.1418C35.2505 19.3124 33.0694 17.1313 30.2989 16.7776V14.4197C30.2989 13.8892 29.8863 13.4766 29.3557 13.4766H26.6442C26.1136 13.4766 25.701 13.8892 25.701 14.4197V16.8366C22.2231 17.485 19.7473 20.6681 20.101 24.2639C20.4547 27.7418 23.5789 30.4534 27.2336 30.4534H29.0021C29.6505 30.4534 30.2989 30.7481 30.7115 31.2197C31.1831 31.6913 31.3599 32.3397 31.301 32.9881C31.1831 34.1671 30.1221 35.0513 28.8252 35.0513H26.4084C25.701 35.0513 25.1115 34.5797 24.9347 33.8724C24.8168 33.4597 24.4631 33.165 24.0505 33.165H21.3389C21.1031 33.165 20.8084 33.2829 20.6315 33.4597C20.4547 33.6366 20.3957 33.8724 20.3957 34.1671C20.6905 36.9966 22.8715 39.1776 25.6421 39.5313V41.8892C25.6421 42.4197 26.0547 42.8324 26.5852 42.8324H29.2968C29.8273 42.8324 30.2399 42.4197 30.2399 41.8892V39.4134C33.2463 38.765 35.5452 36.3481 35.8399 33.4008C36.0168 31.4555 35.4273 29.5692 34.0715 28.0955C32.7747 26.6808 30.9473 25.8555 29.0021 25.8555Z" fill="#1AC577"/>
  </svg>
  