<svg xmlns="http://www.w3.org/2000/svg" width="85" height="96" viewBox="0 0 85 96" fill="none">
  <script xmlns="" id="nimlmejbmnecnaghgmbahmbaddhjbecg" />
  <script xmlns="" />
  <script xmlns="" />
  <path d="M22.8306 93.415H42.502H62.1734" stroke="#1AC577" stroke-width="4" stroke-miterlimit="10" />
  <path d="M42.5 40.5713V93.4142" stroke="#1AC577" stroke-width="4" stroke-miterlimit="10" />
  <path d="M28.6176 66.0285C20.5176 61.3999 14.7319 52.5285 14.7319 42.1142C14.7319 27.0714 27.0748 14.7285 42.1176 14.7285C57.1605 14.7285 69.5034 27.0714 69.5034 42.1142C69.5034 52.1428 64.1034 61.0142 55.6176 66.0285" stroke="#1AC577" stroke-width="4" stroke-miterlimit="10" />
  <path d="M22.4429 77.9857C10.4857 70.6572 2 57.5429 2 42.5C2 20.1286 20.1286 2 42.5 2C64.8714 2 83 20.1286 83 42.5C83 57.5429 74.5143 70.6571 62.5571 77.6" stroke="#1AC577" stroke-width="4" stroke-miterlimit="10" />
</svg>