<svg width="32" height="32" viewBox="0 0 32 32" fill="none" xmlns="http://www.w3.org/2000/svg">
<path d="M0 12.8C0 8.31958 0 6.07937 0.871948 4.36808C1.63893 2.86278 2.86278 1.63893 4.36808 0.871948C6.07937 0 8.31958 0 12.8 0H19.2C23.6804 0 25.9206 0 27.6319 0.871948C29.1372 1.63893 30.3611 2.86278 31.1281 4.36808C32 6.07937 32 8.31958 32 12.8V19.2C32 23.6804 32 25.9206 31.1281 27.6319C30.3611 29.1372 29.1372 30.3611 27.6319 31.1281C25.9206 32 23.6804 32 19.2 32H12.8C8.31958 32 6.07937 32 4.36808 31.1281C2.86278 30.3611 1.63893 29.1372 0.871948 27.6319C0 25.9206 0 23.6804 0 19.2V12.8Z" fill="#F5F7F9"/>
<path d="M27.1853 15.6962C27.1525 15.6222 26.3584 13.8606 24.5931 12.0953C22.2409 9.74312 19.27 8.5 16 8.5C12.73 8.5 9.75905 9.74312 7.40687 12.0953C5.64155 13.8606 4.84374 15.625 4.81468 15.6962C4.77203 15.7922 4.75 15.896 4.75 16.0009C4.75 16.1059 4.77203 16.2097 4.81468 16.3056C4.84749 16.3797 5.64155 18.1403 7.40687 19.9056C9.75905 22.2569 12.73 23.5 16 23.5C19.27 23.5 22.2409 22.2569 24.5931 19.9056C26.3584 18.1403 27.1525 16.3797 27.1853 16.3056C27.2279 16.2097 27.25 16.1059 27.25 16.0009C27.25 15.896 27.2279 15.7922 27.1853 15.6962ZM16 19.75C15.2583 19.75 14.5333 19.5301 13.9166 19.118C13.2999 18.706 12.8193 18.1203 12.5354 17.4351C12.2516 16.7498 12.1774 15.9958 12.322 15.2684C12.4667 14.541 12.8239 13.8728 13.3483 13.3483C13.8728 12.8239 14.541 12.4667 15.2684 12.3221C15.9958 12.1774 16.7498 12.2516 17.4351 12.5355C18.1203 12.8193 18.7059 13.2999 19.118 13.9166C19.5301 14.5333 19.75 15.2583 19.75 16C19.75 16.9946 19.3549 17.9484 18.6516 18.6517C17.9484 19.3549 16.9946 19.75 16 19.75Z" fill="#A0A0A0"/>
</svg>
